<?xml version="1.0" encoding="UTF-8" standalone="no"?>
<!-- Created with Inkscape (http://www.inkscape.org/) -->

<svg
   width="560.56012mm"
   height="211.85487mm"
   viewBox="0 0 560.56012 211.85487"
   version="1.1"
   id="svg1"
   xml:space="preserve"
   sodipodi:docname="orca-long-light.svg"
   inkscape:version="1.3.2 (091e20e, 2023-11-25, custom)"
   xmlns:inkscape="http://www.inkscape.org/namespaces/inkscape"
   xmlns:sodipodi="http://sodipodi.sourceforge.net/DTD/sodipodi-0.dtd"
   xmlns="http://www.w3.org/2000/svg"
   xmlns:svg="http://www.w3.org/2000/svg"><sodipodi:namedview
     id="namedview1"
     pagecolor="#505050"
     bordercolor="#ffffff"
     borderopacity="1"
     inkscape:showpageshadow="0"
     inkscape:pageopacity="0"
     inkscape:pagecheckerboard="1"
     inkscape:deskcolor="#505050"
     inkscape:document-units="mm"
     inkscape:zoom="0.51730996"
     inkscape:cx="1019.6981"
     inkscape:cy="404.97964"
     inkscape:window-width="2240"
     inkscape:window-height="1294"
     inkscape:window-x="-11"
     inkscape:window-y="-11"
     inkscape:window-maximized="1"
     inkscape:current-layer="svg1" /><defs
     id="defs1"><inkscape:path-effect
       effect="offset"
       id="path-effect1"
       is_visible="true"
       lpeversion="1.2"
       linejoin_type="miter"
       unit="mm"
       offset="5"
       miter_limit="4"
       attempt_force_join="false"
       update_on_knot_move="true" /></defs><path
     id="circle18"
     style="display:inline;opacity:1;fill:#ffffff;fill-opacity:1;stroke:none;stroke-width:20.2231;stroke-linecap:round;stroke-linejoin:round;stroke-dasharray:none;stroke-opacity:1"
     inkscape:label="text"
     d="M 23.691577 43.391667 C 8.5205501 61.351072 0.049432291 84.061313 0 107.65131 C -5.5199945e-05 162.87955 44.771342 207.65118 99.999581 207.65141 C 135.92582 207.65088 168.96506 188.35226 186.73796 157.29789 L 185.37835 151.96127 C 180.03703 130.99225 170.32909 114.93458 159.57217 102.76634 C 159.73553 104.39371 159.96967 106.0151 159.99954 107.65131 C 159.99952 140.7883 133.13657 167.65124 99.999581 167.65127 C 66.862596 167.65124 39.999648 140.7883 39.999626 107.65131 C 40.069561 89.97546 47.999116 73.360581 61.440177 62.05151 C 56.950793 62.32684 52.473017 62.825261 48.028076 63.564079 C 34.483712 65.81536 23.097258 55.436579 23.691577 43.391667 z M 501.63191 68.021171 C 488.08869 67.830165 464.32132 70.662315 443.73932 83.123092 L 461.6943 113.6711 C 488.31809 99.615962 506.36965 101.1217 514.05751 103.84224 C 522.61237 106.8696 524.69185 114.85054 525.32142 121.82719 C 519.28677 120.10025 512.88579 119.70382 506.06162 119.71621 C 492.66627 119.74051 469.93665 123.17352 457.62995 134.32358 C 446.58338 144.33194 441.65706 158.67667 443.16726 172.85715 C 444.67747 187.03765 454.06192 201.64149 469.54602 208.30253 C 484.53124 214.749 506.05359 211.2909 518.04848 206.8375 C 520.6628 205.86687 523.15318 204.88055 525.55965 203.8351 L 525.55965 207.65192 L 560.5601 207.65192 L 560.5601 126.89251 L 560.5601 126.87288 C 560.5691 117.65252 559.44431 107.92456 555.41726 98.435335 C 551.38741 88.939515 543.83426 79.733053 533.17521 74.336031 C 525.18093 70.288265 515.17515 68.212178 501.63191 68.021171 z M 384.81217 68.059928 C 345.10442 68.059972 312.91479 100.2496 312.91475 139.95735 C 312.91479 179.6651 345.10442 211.85473 384.81217 211.85477 C 402.01678 211.84877 418.64882 205.67269 431.68838 194.44911 L 414.45274 161.72191 C 407.53767 171.18857 396.53537 176.80577 384.81217 176.85484 C 364.43429 176.85484 347.91468 160.33523 347.91468 139.95735 C 347.91468 119.57947 364.43429 103.05986 384.81217 103.05986 C 395.06045 103.10156 404.82975 107.40371 411.77952 114.93562 L 428.54077 83.109656 C 416.01977 73.414217 400.64797 68.123828 384.81217 68.059928 z M 211.74883 73.059623 L 211.74883 207.65192 L 246.74876 207.65192 L 246.74876 119.81594 C 252.59592 112.64238 261.49844 108.05945 271.47542 108.05955 C 280.95477 108.06655 289.94022 112.28848 295.99537 119.58185 L 312.91113 87.461845 C 301.11062 78.140367 286.51394 73.066684 271.47594 73.059623 C 262.73721 73.059593 254.39842 74.751234 246.74876 77.803003 L 246.74876 73.059623 L 211.74883 73.059623 z M 503.9279 149.74125 C 509.82647 149.90638 515.35512 151.68659 518.76885 155.89384 C 523.76696 162.05373 522.62097 167.3854 518.17922 172.62874 C 510.73376 181.41788 490.54142 183.26524 480.65645 177.30287 C 473.59485 173.04349 475.56594 163.63039 479.43068 158.61667 C 483.23796 153.67753 494.09693 149.46604 503.9279 149.74125 z " /><g
     id="g11"
     transform="rotate(20,156.31557,88.553318)"
     style="display:inline"
     inkscape:label="orca"><path
       id="rect3"
       style="color:#000000;fill:#000000;stroke-linecap:round;stroke-linejoin:round;-inkscape-stroke:none"
       d="m 141.75931,1.8520833 c -14.75786,2.53e-5 -27.24052,9.1917777 -32.51929,22.0613877 -0.61219,1.492509 -1.82725,1.698378 -2.67987,1.727883 -36.264689,1.254937 -68.967046,20.963015 -83.961013,51.558585 -8.388013,17.115953 8.727174,27.454951 20.95531,20.554301 11.618562,-6.556657 24.170837,-11.421747 37.273694,-14.220321 1.3924,18.148971 12.187499,28.464881 30.134599,29.779581 1.85402,0.13581 3.5922,-0.0814 4.87153,-0.51315 2.97607,-1.00436 5.44745,-6.12658 0.75086,-8.99222 C 104.12485,96.205473 103.75215,84.129579 103.873,81.055 c 2.94085,-0.316234 66.35844,-3.176907 105.57055,54.32588 0.39482,-3.25793 0.62903,-6.53342 0.70176,-9.81438 5e-5,-42.296017 -26.75511,-77.261692 -63.37701,-93.049105 -4.46795,-1.926098 -6.26959,-7.687134 -6.26473,-12.930477 0.005,-5.646739 2.81736,-10.8610734 7.40523,-13.74128 1.31431,-0.8251052 1.69882,-3.028225 -0.95085,-3.600297 -1.69837,-0.3666872 -3.45554,-0.3916369 -5.19864,-0.3932577 z"
       inkscape:label="black" /><path
       id="rect3-8"
       style="color:#000000;display:inline;fill:#ffffff;fill-opacity:1;stroke-linecap:round;stroke-linejoin:round;-inkscape-stroke:none"
       d="m 50.868213,54.76875 c -4.084613,-0.0084 -8.391816,1.034373 -13.225549,5.791378 -3.153895,3.103832 -5.804468,6.953363 -5.826518,11.048938 -0.01487,2.761323 2.239275,5.048266 5.000211,4.999695 4.99846,-0.08793 18.552452,-13.452015 18.55184,-17.340027 -3.91e-4,-2.485267 -2.014723,-4.494887 -4.499984,-4.499984 z m 105.117097,8.841321 c -4.75806,-6.1e-5 -8.75902,2.19254 -12.47934,4.557344 -10.11048,6.426691 -27.14714,11.40023 -39.63272,12.887586 2.50647,-0.269523 48.93726,-2.357318 86.87738,32.624369 8.3e-4,-4.4e-4 0.002,-6e-4 0.003,-0.001 -4.90189,-4.49024 -14.20265,-20.073031 -15.35771,-30.704583 -1.19062,-10.958703 -8.69024,-19.363538 -19.41019,-19.363676 z m -98.608967,9.923942 c -14.481238,0.0052 -27.212024,9.590823 -31.219283,23.506575 4.754942,3.348172 11.609968,3.979132 17.397387,0.713135 C 55.169636,91.19897 67.729408,86.332881 80.828141,83.533919 74.702227,77.147713 66.225662,73.537701 57.376343,73.534013 Z"
       inkscape:label="white" /></g></svg>
