<?xml version="1.0" encoding="UTF-8" standalone="no"?>
<!-- Created with Inkscape (http://www.inkscape.org/) -->

<svg
   width="200.14796mm"
   height="207.65141mm"
   viewBox="0 0 200.14796 207.65141"
   version="1.1"
   id="svg1"
   xml:space="preserve"
   sodipodi:docname="orca-long-light.svg"
   inkscape:version="1.3.2 (091e20e, 2023-11-25, custom)"
   xmlns:inkscape="http://www.inkscape.org/namespaces/inkscape"
   xmlns:sodipodi="http://sodipodi.sourceforge.net/DTD/sodipodi-0.dtd"
   xmlns="http://www.w3.org/2000/svg"
   xmlns:svg="http://www.w3.org/2000/svg"><sodipodi:namedview
     id="namedview1"
     pagecolor="#505050"
     bordercolor="#ffffff"
     borderopacity="1"
     inkscape:showpageshadow="0"
     inkscape:pageopacity="0"
     inkscape:pagecheckerboard="1"
     inkscape:deskcolor="#505050"
     inkscape:document-units="mm"
     inkscape:zoom="0.51730996"
     inkscape:cx="1019.6981"
     inkscape:cy="404.97964"
     inkscape:window-width="2240"
     inkscape:window-height="1294"
     inkscape:window-x="-11"
     inkscape:window-y="-11"
     inkscape:window-maximized="1"
     inkscape:current-layer="svg1" /><defs
     id="defs1" /><path
     id="circle18"
     style="display:inline;opacity:1;fill:#ffffff;fill-opacity:1;stroke:none;stroke-width:20.2231;stroke-linecap:round;stroke-linejoin:round;stroke-dasharray:none;stroke-opacity:1"
     inkscape:label="text"
     d="M 23.691577,43.391669 C 8.5205501,61.351074 0.04943229,84.061315 0,107.65131 c -5.5199894e-5,55.22824 44.771342,99.99987 99.999581,100.0001 35.926239,-5.3e-4 68.965479,-19.29915 86.738379,-50.35352 l -1.35961,-5.33662 c -5.34132,-20.96902 -15.04926,-37.02669 -25.80618,-49.19493 0.16336,1.62737 0.3975,3.24876 0.42737,4.88497 -2e-5,33.13699 -26.86297,59.99993 -59.999959,59.99996 -33.136985,-3e-5 -59.999933,-26.86297 -59.999955,-59.99996 0.06994,-17.675848 7.99949,-34.290727 21.440551,-45.599798 -4.489384,0.27533 -8.96716,0.773751 -13.412101,1.512569 -13.544364,2.251281 -24.930818,-8.1275 -24.336499,-20.172412 z"
     sodipodi:nodetypes="ccccccccccsc" /><g
     id="g11"
     transform="rotate(20,156.31556,88.553319)"
     style="display:inline"
     inkscape:label="orca"><path
       id="rect3"
       style="color:#000000;fill:#000000;stroke-linecap:round;stroke-linejoin:round;-inkscape-stroke:none"
       d="m 141.75931,1.8520833 c -14.75786,2.53e-5 -27.24052,9.1917777 -32.51929,22.0613877 -0.61219,1.492509 -1.82725,1.698378 -2.67987,1.727883 -36.264689,1.254937 -68.967046,20.963015 -83.961013,51.558585 -8.388013,17.115953 8.727174,27.454951 20.95531,20.554301 11.618562,-6.556657 24.170837,-11.421747 37.273694,-14.220321 1.3924,18.148971 12.187499,28.464881 30.134599,29.779581 1.85402,0.13581 3.5922,-0.0814 4.87153,-0.51315 2.97607,-1.00436 5.44745,-6.12658 0.75086,-8.99222 C 104.12485,96.205473 103.75215,84.129579 103.873,81.055 c 2.94085,-0.316234 66.35844,-3.176907 105.57055,54.32588 0.39482,-3.25793 0.62903,-6.53342 0.70176,-9.81438 5e-5,-42.296017 -26.75511,-77.261692 -63.37701,-93.049105 -4.46795,-1.926098 -6.26959,-7.687134 -6.26473,-12.930477 0.005,-5.646739 2.81736,-10.8610734 7.40523,-13.74128 1.31431,-0.8251052 1.69882,-3.028225 -0.95085,-3.600297 -1.69837,-0.3666872 -3.45554,-0.3916369 -5.19864,-0.3932577 z"
       inkscape:label="black" /><path
       id="rect3-8"
       style="color:#000000;display:inline;fill:#ffffff;fill-opacity:1;stroke-linecap:round;stroke-linejoin:round;-inkscape-stroke:none"
       d="m 50.868213,54.76875 c -4.084613,-0.0084 -8.391816,1.034373 -13.225549,5.791378 -3.153895,3.103832 -5.804468,6.953363 -5.826518,11.048938 -0.01487,2.761323 2.239275,5.048266 5.000211,4.999695 4.99846,-0.08793 18.552452,-13.452015 18.55184,-17.340027 -3.91e-4,-2.485267 -2.014723,-4.494887 -4.499984,-4.499984 z m 105.117097,8.841321 c -4.75806,-6.1e-5 -8.75902,2.19254 -12.47934,4.557344 -10.11048,6.426691 -27.14714,11.40023 -39.63272,12.887586 2.50647,-0.269523 48.93726,-2.357318 86.87738,32.624369 8.3e-4,-4.4e-4 0.002,-6e-4 0.003,-0.001 -4.90189,-4.49024 -14.20265,-20.073031 -15.35771,-30.704583 -1.19062,-10.958703 -8.69024,-19.363538 -19.41019,-19.363676 z m -98.608967,9.923942 c -14.481238,0.0052 -27.212024,9.590823 -31.219283,23.506575 4.754942,3.348172 11.609968,3.979132 17.397387,0.713135 C 55.169636,91.19897 67.729408,86.332881 80.828141,83.533919 74.702227,77.147713 66.225662,73.537701 57.376343,73.534013 Z"
       inkscape:label="white" /></g></svg>
